<svg xmlns="http://www.w3.org/2000/svg" width="162.141" height="162.141" viewBox="0 0 162.141 162.141">
  <g id="Group_275" data-name="Group 275" transform="translate(-60.79 -359.158)">
    <g id="Group_271" data-name="Group 271" transform="translate(60.79 359.158)">
      <path id="Path_56823" data-name="Path 56823" d="M141.86,521.3a81.071,81.071,0,1,1,81.071-81.07A81.162,81.162,0,0,1,141.86,521.3Zm0-153.207A72.137,72.137,0,1,0,214,440.229,72.218,72.218,0,0,0,141.86,368.092Z" transform="translate(-60.79 -359.158)"/>
    </g>
    <g id="Group_272" data-name="Group 272" transform="translate(108.11 410.841)">
      <circle id="Ellipse_64" data-name="Ellipse 64" cx="8.273" cy="8.273" r="8.273"/>
    </g>
    <g id="Group_273" data-name="Group 273" transform="translate(157.294 410.841)">
      <circle id="Ellipse_65" data-name="Ellipse 65" cx="8.273" cy="8.273" r="8.273"/>
    </g>
    <g id="Group_274" data-name="Group 274" transform="translate(103.642 452.058)">
      <path id="Path_56824" data-name="Path 56824" d="M122.812,509.3a4.468,4.468,0,0,1-3.795-6.817c6.77-10.944,21.741-18.393,37.256-18.537l.452,0c15.342,0,30.3,7.125,37.326,17.816a4.467,4.467,0,0,1-7.466,4.908c-5.357-8.151-17.6-13.79-29.865-13.79l-.366,0c-12.371.114-24.6,6-29.739,14.3A4.465,4.465,0,0,1,122.812,509.3Z" transform="translate(-118.349 -483.942)"/>
    </g>
  </g>
</svg>
