<svg xmlns="http://www.w3.org/2000/svg" width="32" height="32" viewBox="0 0 32 32">
  <g id="Group_284" data-name="Group 284" transform="translate(-183 -218)">
    <rect id="Rectangle_980" data-name="Rectangle 980" width="32" height="32" rx="16" transform="translate(183 218)" fill="#fff"/>
    <path id="Path_56309" data-name="Path 56309" d="M1396.732,168.924c.149-.137.329-.291.5-.458a3.629,3.629,0,0,1,2.028-1.084,3.063,3.063,0,0,1,3.154,1.3,3.55,3.55,0,0,1,.666,1.623,3.946,3.946,0,0,1-.177,1.771,7.206,7.206,0,0,1-1.125,2.089,16.03,16.03,0,0,1-2.279,2.418c-.864.764-1.778,1.465-2.712,2.139a.07.07,0,0,1-.1,0,30.23,30.23,0,0,1-3.6-2.97,12.712,12.712,0,0,1-1.787-2.157,5.946,5.946,0,0,1-.838-1.9,3.575,3.575,0,0,1,1.18-3.651,2.889,2.889,0,0,1,2.142-.715,3.642,3.642,0,0,1,2.454,1.133C1396.4,168.632,1396.58,168.784,1396.732,168.924Z" transform="translate(-1197.854 61.901)" fill="none" stroke="#000" stroke-width="2"/>
  </g>
</svg>
